<svg width="17" height="18" viewBox="0 0 17 18" fill="none" xmlns="http://www.w3.org/2000/svg">
<path d="M8.50004 10.6997C8.84348 10.6997 9.15345 10.4925 9.28495 10.1753C9.41722 9.8574 9.34391 9.49164 9.10087 9.24861C8.85784 9.00557 8.49208 8.93305 8.17493 9.06454C7.85698 9.19602 7.64981 9.506 7.64981 9.85024C7.64981 10.0758 7.73985 10.2917 7.89923 10.4511C8.05861 10.6104 8.27454 10.6997 8.50005 10.6997L8.50004 10.6997ZM12.7496 10.6997C13.0939 10.6997 13.4038 10.4925 13.5353 10.1753C13.6668 9.8574 13.5943 9.49164 13.3513 9.24861C13.1082 9.00557 12.7425 8.93305 12.4245 9.06454C12.1074 9.19602 11.9002 9.506 11.9002 9.85024C11.9002 10.0758 11.9894 10.2917 12.1488 10.4511C12.3082 10.6104 12.5241 10.6997 12.7496 10.6997L12.7496 10.6997ZM8.50004 14.0998C8.84348 14.0998 9.15345 13.8927 9.28495 13.5755C9.41722 13.2576 9.34391 12.8918 9.10087 12.6488C8.85784 12.4057 8.49208 12.3332 8.17493 12.4647C7.85698 12.5962 7.64981 12.9062 7.64981 13.2496C7.64981 13.4751 7.73985 13.6919 7.89923 13.8512C8.05861 14.0106 8.27454 14.0998 8.50005 14.0998L8.50004 14.0998ZM12.7496 14.0998C13.0939 14.0998 13.4038 13.8927 13.5353 13.5755C13.6668 13.2576 13.5943 12.8918 13.3513 12.6488C13.1082 12.4057 12.7425 12.3332 12.4245 12.4647C12.1074 12.5962 11.9002 12.9062 11.9002 13.2496C11.9002 13.4751 11.9894 13.6919 12.1488 13.8512C12.3082 14.0106 12.5241 14.0998 12.7496 14.0998L12.7496 14.0998ZM4.25045 10.6997C4.59389 10.6997 4.90386 10.4925 5.03535 10.1753C5.16683 9.8574 5.09432 9.49164 4.85128 9.24861C4.60825 9.00557 4.24248 8.93305 3.92454 9.06454C3.60739 9.19602 3.40022 9.506 3.40022 9.85024C3.40022 10.0758 3.48946 10.2917 3.64884 10.4511C3.80822 10.6104 4.02497 10.6997 4.25046 10.6997L4.25045 10.6997ZM14.4501 2.20049H13.5999V1.35024C13.5999 0.880897 13.219 0.5 12.7496 0.5C12.2803 0.5 11.9002 0.880897 11.9002 1.35024V2.20049H5.09986V1.35024C5.09986 0.880897 4.71976 0.5 4.25041 0.5C3.78106 0.5 3.40016 0.880897 3.40016 1.35024V2.20049H2.54992C1.14189 2.20049 0 3.34159 0 4.75041V14.9501C0 16.3581 1.14189 17.5 2.54992 17.5H14.4501C15.8581 17.5 17 16.3581 17 14.9501V4.75041C17 3.34159 15.8581 2.20049 14.4501 2.20049H14.4501ZM15.3004 14.9501H15.2996C15.2996 15.1756 15.2103 15.3915 15.0509 15.5509C14.8916 15.7103 14.6756 15.7995 14.4501 15.7995H2.54996C2.08061 15.7995 1.70051 15.4194 1.70051 14.9501V7.30033H15.2995L15.3004 14.9501ZM15.2996 5.59984H1.70055V4.75039C1.70055 4.28104 2.08065 3.90014 2.55 3.90014H14.4502C14.6757 3.90014 14.8916 3.98939 15.051 4.14877C15.2103 4.30815 15.2996 4.52489 15.2996 4.75039L15.2996 5.59984ZM4.25047 14.0998C4.59391 14.0998 4.90388 13.8927 5.03537 13.5755C5.16685 13.2576 5.09434 12.8918 4.8513 12.6488C4.60826 12.4057 4.2425 12.3332 3.92456 12.4647C3.60741 12.5962 3.40023 12.9062 3.40023 13.2496C3.40023 13.4751 3.48948 13.6919 3.64886 13.8512C3.80824 14.0106 4.02499 14.0998 4.25048 14.0998L4.25047 14.0998Z" fill="white"/>
</svg>
