<svg width="16" height="16" viewBox="0 0 16 16" fill="none" xmlns="http://www.w3.org/2000/svg">
<path d="M15.7506 6.99688C15.6225 6.915 14.6131 6.31189 14.2131 6.12813L13.7169 4.92815C13.8644 4.53127 14.1475 3.41941 14.1969 3.2256C14.2369 3.04623 14.1825 2.85935 14.0525 2.72935L13.2706 1.95186C13.1412 1.82123 12.9537 1.76687 12.7744 1.80811C12.6269 1.84186 11.4944 2.12811 11.0718 2.2881L9.87184 1.79185C9.69747 1.40811 9.10998 0.42374 9.0031 0.254365C8.90685 0.0968662 8.7356 0 8.5506 0H7.44937C7.26563 0 7.095 0.0943734 6.99688 0.249373C6.915 0.377497 6.31189 1.38687 6.12813 1.78686L4.92815 2.28311C4.53127 2.13561 3.41941 1.85249 3.2256 1.80312C3.04623 1.76312 2.85935 1.81749 2.72935 1.94749L1.95186 2.72935C1.82123 2.85873 1.76687 3.04623 1.80811 3.2256C1.84186 3.3731 2.12811 4.50559 2.2881 4.92815L1.79185 6.12813C1.40811 6.3025 0.42374 6.89 0.254365 6.99688C0.0968662 7.09313 0 7.26438 0 7.44937V8.54873C0 8.73247 0.0943734 8.9031 0.249373 9.00185C0.377497 9.08372 1.38687 9.68683 1.78686 9.87059L2.28311 11.0706C2.13561 11.4675 1.85249 12.5793 1.80312 12.7731V12.7725C1.76312 12.9519 1.81749 13.1394 1.94749 13.2687L2.72499 14.0462C2.85436 14.1769 3.04186 14.2312 3.22061 14.1906C3.36811 14.1569 4.5006 13.8706 4.92315 13.7106L6.12314 14.2069C6.29751 14.5906 6.88501 15.575 6.99189 15.7444V15.7437C7.08876 15.9037 7.26251 16.0012 7.44939 16H8.54875C8.73249 16 8.90311 15.9056 9.00186 15.7506C9.08374 15.6225 9.68685 14.6131 9.87061 14.2131L11.0706 13.7169C11.4675 13.8644 12.5793 14.1475 12.7731 14.1969H12.7725C12.9519 14.2369 13.1394 14.1825 13.2688 14.0525L14.0463 13.275C14.1769 13.1456 14.2312 12.9581 14.1906 12.7794C14.1569 12.6319 13.8706 11.4994 13.7106 11.0768L14.2069 9.87685C14.5906 9.70248 15.575 9.11498 15.7444 9.0081H15.7438C15.9037 8.91123 16.0013 8.73748 16 8.5506V7.44937C16.0013 7.26562 15.9069 7.09374 15.7506 6.99688L15.7506 6.99688ZM8.00012 11.4831C7.07576 11.4824 6.18894 11.1143 5.53583 10.46C4.88271 9.8056 4.51646 8.91811 4.51709 7.99375C4.51771 7.06876 4.88583 6.18257 5.5402 5.52945C6.19456 4.87634 7.08205 4.50946 8.00641 4.51071C8.93139 4.51134 9.81759 4.87946 10.4707 5.53382C11.1238 6.18818 11.4907 7.07568 11.4894 8.00003C11.4876 8.92439 11.1188 9.80994 10.4651 10.4632C9.81073 11.1157 8.92448 11.4826 8.00015 11.4832L8.00012 11.4831Z" fill="white"/>
</svg>
