<svg width="18" height="18" viewBox="0 0 18 18" fill="none" xmlns="http://www.w3.org/2000/svg">
<path d="M6.5 14.9972C6.5 16.654 5.15685 17.9972 3.5 17.9972C1.84315 17.9972 0.5 16.654 0.5 14.9972C0.5 13.3403 1.84315 11.9972 3.5 11.9972C5.15685 11.9972 6.5 13.3403 6.5 14.9972ZM0.5 5.99716V7.99716C6.01367 7.99716 10.5 12.4835 10.5 17.9972H12.5C12.5 11.38 7.11719 5.99716 0.5 5.99716ZM0.5 0.997162V2.99716C8.77148 2.99716 15.5 9.72568 15.5 17.9972H17.5C17.5 8.62314 9.87402 0.997162 0.5 0.997162Z" fill="white"/>
</svg>
