<svg width="18" height="19" viewBox="0 0 18 19" fill="none" xmlns="http://www.w3.org/2000/svg">
<path d="M10.8092 16.6989H0.91867C0.379187 16.6989 0.0195312 17.0585 0.0195312 17.598C0.0195312 18.1375 0.379187 18.4972 0.91867 18.4972H10.8092C11.3487 18.4972 11.7083 18.1375 11.7083 17.598C11.7083 17.0585 11.3487 16.6989 10.8092 16.6989Z" fill="white"/>
<path d="M16.0238 7.52767L9.90971 5.90922L10.4492 4.11094H10.7189C11.0786 4.11094 11.4382 3.8412 11.6181 3.48155C11.708 3.03198 11.4382 2.49249 10.9887 2.40258L3.88548 0.51439C3.43591 0.424476 2.98634 0.694217 2.80651 1.14379C2.7166 1.68327 2.98634 2.13284 3.43591 2.31267L1.09815 11.0343C0.648578 10.9444 0.109095 11.2141 0.0191808 11.6637C-0.0707331 12.1133 0.199008 12.6528 0.648578 12.7427L7.57195 14.6309C8.02151 14.7208 8.561 14.451 8.65091 14.0015C8.74083 13.5519 8.47108 13.0124 8.02151 12.9225L8.47108 11.2141L14.5852 12.8326C16.0238 13.1922 17.4625 12.383 17.912 10.9444C18.2717 9.41586 17.4625 7.88733 16.0238 7.52767ZM5.23418 2.76224L8.74083 3.66138C8.47108 4.38069 6.58289 11.4839 6.31315 12.383L2.80651 11.4839L5.23418 2.76224ZM16.2037 10.315C16.1138 10.7646 15.5743 11.0343 15.1247 10.9444L9.01057 9.32595L9.46014 7.61759L15.5743 9.23604C16.0238 9.41586 16.2936 9.86543 16.2037 10.315Z" fill="white"/>
</svg>
