<svg width="23" height="22" viewBox="0 0 23 22" fill="none" xmlns="http://www.w3.org/2000/svg">
<path d="M9.23882 2.68038C10.7733 2.68038 12.2454 3.292 13.3312 4.38127C14.4161 5.46966 15.0258 6.94633 15.0258 8.4866C15.0258 10.0269 14.4161 11.5036 13.3312 12.5919C12.2454 13.6812 10.7733 14.2928 9.23882 14.2928C7.70344 14.2928 6.23138 13.6812 5.14559 12.5919C4.06064 11.5035 3.45008 10.0269 3.45008 8.4866C3.45008 6.94633 4.06064 5.46962 5.14559 4.38127C6.2314 3.29202 7.70342 2.68038 9.23882 2.68038ZM9.23882 8.75473e-05C6.61588 0.000946526 4.14201 1.22249 2.54063 3.30559C0.940167 5.38962 0.392124 8.09991 1.05835 10.6443C1.72457 13.1887 3.52959 15.2796 5.94448 16.3053C8.72592 17.4693 11.9147 17.0612 14.316 15.2341C16.717 13.4069 17.9681 10.4373 17.6007 7.43575C17.2333 4.43504 15.3033 1.85723 12.5322 0.6675C11.49 0.225102 10.37 -0.00255141 9.23888 2.15691e-05L9.23882 8.75473e-05Z" fill="#ABF0FF"/>
<path d="M13.6187 14.639L15.5084 12.7431L22.7 19.9582L20.8103 21.8541L13.6187 14.639Z" fill="#ABF0FF"/>
</svg>
