<svg width="24" height="21" viewBox="0 0 24 21" fill="none" xmlns="http://www.w3.org/2000/svg">
<path d="M21.5331 5.68272C21.5483 5.90146 21.5483 6.12025 21.5483 6.33899C21.5483 13.0108 16.5991 20.6984 7.55333 20.6984C4.7665 20.6984 2.17768 19.8702 0 18.4328C0.395955 18.4796 0.776628 18.4952 1.18782 18.4952C3.48728 18.4952 5.60407 17.6984 7.29443 16.339C5.13199 16.2921 3.31979 14.839 2.69542 12.839C3.00001 12.8858 3.30456 12.9171 3.62439 12.9171C4.066 12.9171 4.50766 12.8546 4.9188 12.7452C2.66499 12.2765 0.974582 10.2452 0.974582 7.79211V7.72963C1.62938 8.10463 2.39087 8.339 3.19792 8.37022C1.87304 7.46395 1.00505 5.91709 1.00505 4.16708C1.00505 3.2296 1.24866 2.37022 1.67508 1.62022C4.09642 4.68271 7.73605 6.68268 11.8172 6.90147C11.7411 6.52646 11.6954 6.13588 11.6954 5.74525C11.6954 2.96396 13.8883 0.698364 16.6142 0.698364C18.0304 0.698364 19.3096 1.30774 20.2081 2.29211C21.3198 2.07337 22.3858 1.65148 23.33 1.07337C22.9644 2.24527 22.1878 3.22964 21.1675 3.8546C22.1574 3.74528 23.1168 3.46397 24 3.07338C23.3301 4.07334 22.4924 4.96393 21.5331 5.68272Z" fill="url(#paint0_linear_863_4485)"/>
<defs>
<linearGradient id="paint0_linear_863_4485" x1="12" y1="0.698364" x2="12" y2="20.6984" gradientUnits="userSpaceOnUse">
<stop stop-color="#C3E8FF"/>
<stop offset="1" stop-color="#1DA1F2"/>
</linearGradient>
</defs>
</svg>
