<svg width="22" height="21" viewBox="0 0 22 21" fill="none" xmlns="http://www.w3.org/2000/svg">
<path d="M11.0022 5.327C8.16453 5.327 5.87563 7.50195 5.87563 10.1984C5.87563 12.8948 8.16453 15.0697 11.0022 15.0697C13.8399 15.0697 16.1288 12.8948 16.1288 10.1984C16.1288 7.50195 13.8399 5.327 11.0022 5.327ZM11.0022 13.3654C9.16843 13.3654 7.66927 11.9451 7.66927 10.1984C7.66927 8.45163 9.16397 7.03134 11.0022 7.03134C12.8405 7.03134 14.3352 8.45163 14.3352 10.1984C14.3352 11.9451 12.836 13.3654 11.0022 13.3654ZM17.5343 5.12774C17.5343 5.75945 16.9989 6.26397 16.3385 6.26397C15.6737 6.26397 15.1428 5.75521 15.1428 5.12774C15.1428 4.50027 15.6782 3.99151 16.3385 3.99151C16.9989 3.99151 17.5343 4.50027 17.5343 5.12774ZM20.9297 6.28093C20.8539 4.75889 20.488 3.41068 19.3146 2.29989C18.1456 1.1891 16.7267 0.841453 15.1249 0.765139C13.4741 0.676106 8.52593 0.676106 6.87507 0.765139C5.27775 0.837213 3.8589 1.18486 2.68544 2.29565C1.51199 3.40644 1.15059 4.75465 1.07027 6.27669C0.976576 7.84536 0.976576 12.5471 1.07027 14.1158C1.14612 15.6378 1.51199 16.986 2.68544 18.0968C3.8589 19.2076 5.27328 19.5553 6.87507 19.6316C8.52593 19.7206 13.4741 19.7206 15.1249 19.6316C16.7267 19.5595 18.1456 19.2119 19.3146 18.0968C20.4835 16.986 20.8494 15.6378 20.9297 14.1158C21.0234 12.5471 21.0234 7.8496 20.9297 6.28093ZM18.797 15.7989C18.449 16.6299 17.7752 17.2701 16.8963 17.605C15.58 18.1011 12.4568 17.9866 11.0022 17.9866C9.54769 17.9866 6.41997 18.0968 5.1082 17.605C4.23369 17.2743 3.55996 16.6342 3.20747 15.7989C2.68544 14.5482 2.80591 11.5805 2.80591 10.1984C2.80591 8.81624 2.68991 5.84424 3.20747 4.59778C3.55549 3.76681 4.22922 3.12662 5.1082 2.79169C6.42443 2.29565 9.54769 2.41012 11.0022 2.41012C12.4568 2.41012 15.5845 2.29989 16.8963 2.79169C17.7708 3.12239 18.4445 3.76257 18.797 4.59778C19.319 5.84848 19.1985 8.81624 19.1985 10.1984C19.1985 11.5805 19.319 14.5525 18.797 15.7989Z" fill="url(#paint0_linear_863_4483)" stroke="url(#paint1_linear_863_4483)"/>
<defs>
<linearGradient id="paint0_linear_863_4483" x1="23" y1="-0.251636" x2="4.07226" y2="20.6685" gradientUnits="userSpaceOnUse">
<stop stop-color="#FCAE41"/>
<stop offset="0.329224" stop-color="#F84D42"/>
<stop offset="0.662564" stop-color="#C12A98"/>
<stop offset="0.990695" stop-color="#A03BC1"/>
</linearGradient>
<linearGradient id="paint1_linear_863_4483" x1="23" y1="0.698366" x2="-0.0114496" y2="20.3792" gradientUnits="userSpaceOnUse">
<stop stop-color="#FCAE41"/>
<stop offset="0.329224" stop-color="#F84D42"/>
<stop offset="0.662564" stop-color="#C12A98"/>
<stop offset="0.990695" stop-color="#A03BC1"/>
</linearGradient>
</defs>
</svg>
