<svg width="21" height="23" viewBox="0 0 21 23" fill="none" xmlns="http://www.w3.org/2000/svg">
<path fill-rule="evenodd" clip-rule="evenodd" d="M15.8198 8.01457C17.2797 9.03876 19.0683 9.64144 21 9.64144V5.99329C20.6344 5.99343 20.2698 5.95599 19.9121 5.88156V8.75321C17.9806 8.75321 16.1922 8.15053 14.7319 7.12634V14.571C14.7319 18.2953 11.6556 21.3142 7.86103 21.3142C6.44524 21.3142 5.12924 20.8941 4.03601 20.1737C5.28371 21.4257 7.02367 22.2024 8.94865 22.2024C12.7435 22.2024 15.8199 19.1835 15.8199 15.4591V8.01457H15.8198ZM17.1618 4.33407C16.4157 3.53412 15.9258 2.50023 15.8198 1.35723V0.888031H14.7888C15.0483 2.34069 15.9334 3.5818 17.1618 4.33407ZM6.43604 17.3159C6.01922 16.7795 5.7939 16.1232 5.79491 15.4485C5.79491 13.7452 7.20203 12.3642 8.93798 12.3642C9.26146 12.3639 9.58304 12.4127 9.8914 12.5086V8.77902C9.5311 8.73056 9.16749 8.71002 8.80391 8.71758V11.6205C8.49541 11.5246 8.1737 11.4758 7.85009 11.4761C6.11414 11.4761 4.70715 12.8571 4.70715 14.5606C4.70715 15.765 5.41045 16.8079 6.43604 17.3159Z" fill="#EE1D52"/>
<path fill-rule="evenodd" clip-rule="evenodd" d="M14.7319 7.1264C16.1922 8.15061 17.9806 8.75329 19.9121 8.75329V5.88161C18.834 5.65631 17.8795 5.10327 17.1618 4.3341C15.9334 3.58183 15.0483 2.3407 14.7888 0.888031H12.0809V15.4592C12.0748 17.1578 10.67 18.5332 8.93782 18.5332C7.91703 18.5332 7.01016 18.0558 6.43587 17.3161C5.41028 16.8081 4.70698 15.7652 4.70698 14.5607C4.70698 12.8572 6.11397 11.4762 7.84993 11.4762C8.1825 11.4762 8.50306 11.527 8.80375 11.6206V8.71766C5.07584 8.79324 2.07764 11.7827 2.07764 15.4593C2.07764 17.2946 2.82429 18.9584 4.03597 20.174C5.1292 20.8944 6.44521 21.3145 7.861 21.3145C11.6556 21.3145 14.7319 18.2955 14.7319 14.5713V7.1264Z" fill="white"/>
<path fill-rule="evenodd" clip-rule="evenodd" d="M19.9121 5.88166V5.10516C18.9398 5.1066 17.9867 4.83938 17.1618 4.33403C17.892 5.11863 18.8535 5.65969 19.9121 5.88166V5.88166ZM14.7888 0.888105C14.764 0.74929 14.745 0.60954 14.7319 0.469202V0H10.9929V14.5712C10.9869 16.2697 9.58228 17.6451 7.84992 17.6451C7.34126 17.6451 6.86115 17.5267 6.43586 17.3161C7.01016 18.0558 7.91702 18.5332 8.93781 18.5332C10.6699 18.5332 12.0748 17.1578 12.0809 15.4592V0.888105H14.7888ZM8.80388 8.71771V7.89103C8.49145 7.84909 8.17647 7.82813 7.86113 7.82829C4.06611 7.82829 0.989868 10.8473 0.989868 14.5712C0.989868 16.906 2.19889 18.9635 4.0361 20.1739C2.82441 18.9583 2.07776 17.2945 2.07776 15.4592C2.07776 11.7827 5.07583 8.79329 8.80388 8.71771V8.71771Z" fill="#69C9D0"/>
</svg>
