<svg width="28" height="33" viewBox="0 0 28 33" fill="none" xmlns="http://www.w3.org/2000/svg">
<path d="M18.576 15.8826C18.576 16.8586 17.856 17.6586 16.944 17.6586C16.048 17.6586 15.312 16.8586 15.312 15.8826C15.312 14.9066 16.032 14.1066 16.944 14.1066C17.856 14.1066 18.576 14.9066 18.576 15.8826ZM11.104 14.1066C10.192 14.1066 9.472 14.9066 9.472 15.8826C9.472 16.8586 10.208 17.6586 11.104 17.6586C12.016 17.6586 12.736 16.8586 12.736 15.8826C12.752 14.9066 12.016 14.1066 11.104 14.1066ZM28 3.97862V32.6826C23.9691 29.1205 25.2583 30.2996 20.576 25.9466L21.424 28.9066H3.28C1.472 28.9066 0 27.4346 0 25.6106V3.97862C0 2.15462 1.472 0.682617 3.28 0.682617H24.72C26.528 0.682617 28 2.15462 28 3.97862ZM23.44 19.1466C23.44 13.9946 21.136 9.81862 21.136 9.81862C18.832 8.09062 16.64 8.13862 16.64 8.13862L16.416 8.39462C19.136 9.22662 20.4 10.4266 20.4 10.4266C16.5993 8.34356 12.1348 8.34318 8.448 9.96262C7.856 10.2346 7.504 10.4266 7.504 10.4266C7.504 10.4266 8.832 9.16262 11.712 8.33062L11.552 8.13862C11.552 8.13862 9.36 8.09062 7.056 9.81862C7.056 9.81862 4.752 13.9946 4.752 19.1466C4.752 19.1466 6.096 21.4666 9.632 21.5786C9.632 21.5786 10.224 20.8586 10.704 20.2506C8.672 19.6426 7.904 18.3626 7.904 18.3626C8.13937 18.5274 8.5275 18.7409 8.56 18.7626C11.2606 20.275 15.0968 20.7705 18.544 19.3226C19.104 19.1146 19.728 18.8106 20.384 18.3786C20.384 18.3786 19.584 19.6906 17.488 20.2826C17.968 20.8906 18.544 21.5786 18.544 21.5786C22.08 21.4666 23.44 19.1466 23.44 19.1466Z" fill="white"/>
</svg>
