<svg width="18" height="18" viewBox="0 0 18 18" fill="none" xmlns="http://www.w3.org/2000/svg">
<path d="M1.66667 7.3335C0.7461 7.3335 0 8.0796 0 9.00016C0 9.92073 0.7461 10.6668 1.66667 10.6668C10.0171 10.6668 6.96799 10.6668 16.3333 10.6668C17.2539 10.6668 18 9.92073 18 9.00016C18 8.0796 17.2539 7.3335 16.3333 7.3335C6.99951 7.3335 10.0116 7.3335 1.66667 7.3335Z" fill="white"/>
<path d="M7.33325 16.3333C7.33325 17.2539 8.07935 18 8.99992 18C9.92049 18 10.6666 17.2539 10.6666 16.3333C10.6666 7.98295 10.6666 11.032 10.6666 1.66667C10.6666 0.746099 9.92049 0 8.99992 0C8.07935 0 7.33325 0.746099 7.33325 1.66667C7.33325 11.0005 7.33325 7.98836 7.33325 16.3333Z" fill="white"/>
</svg>
