<svg width="28" height="28" viewBox="0 0 28 28" fill="none" xmlns="http://www.w3.org/2000/svg">
<path d="M7.24427 11.9127L3.03543 5.61974C5.65769 2.44647 9.59108 0.699023 13.6126 0.682943C15.9429 0.666862 18.3228 1.24578 20.4878 2.46256C22.8787 3.81333 24.6966 5.75375 25.8535 7.98362L14.5436 7.40472C11.3429 7.22247 8.29647 8.97528 7.24427 11.9127ZM9.05671 13.9764C9.05671 16.4529 11.1171 18.4576 13.6622 18.4576C16.2073 18.4576 18.2677 16.4529 18.2677 13.9764C18.2677 11.5 16.2073 9.49522 13.6622 9.49522C11.1171 9.49522 9.05671 11.4946 9.05671 13.9764ZM26.4044 9.19505L18.7084 9.58099C20.7963 11.9556 20.8293 15.3808 19.072 18.0074L12.8965 27.2485C15.4581 27.3825 18.0969 26.8357 20.4878 25.4849C26.4044 22.1616 28.8008 15.1932 26.4044 9.19505ZM7.36546 16.5279L2.22561 6.6918C0.820833 8.7823 0 11.2909 0 13.9764C0 20.6232 5.00212 26.1282 11.5413 27.1037L15.0505 20.4141C11.8773 20.993 8.81432 19.2992 7.36546 16.5279Z" fill="white"/>
</svg>
