<svg width="28" height="28" viewBox="0 0 28 28" fill="none" xmlns="http://www.w3.org/2000/svg">
<path d="M7.24427 11.9373L3.03543 5.64434C5.65769 2.47107 9.59108 0.72362 13.6126 0.70754C15.9429 0.691459 18.3228 1.27037 20.4878 2.48715C22.8787 3.83793 24.6966 5.77835 25.8535 8.00822L14.5436 7.42931C11.3429 7.24706 8.29647 8.99987 7.24427 11.9373ZM9.05671 14.001C9.05671 16.4775 11.1171 18.4822 13.6622 18.4822C16.2073 18.4822 18.2677 16.4775 18.2677 14.001C18.2677 11.5246 16.2073 9.51982 13.6622 9.51982C11.1171 9.51982 9.05671 11.5192 9.05671 14.001ZM26.4044 9.21964L18.7084 9.60558C20.7963 11.9802 20.8293 15.4054 19.072 18.032L12.8965 27.2731C15.4581 27.4071 18.0969 26.8603 20.4878 25.5095C26.4044 22.1862 28.8008 15.2178 26.4044 9.21964ZM7.36546 16.5525L2.22561 6.7164C0.820833 8.8069 0 11.3155 0 14.001C0 20.6478 5.00212 26.1528 11.5413 27.1283L15.0505 20.4387C11.8773 21.0176 8.81432 19.3238 7.36546 16.5525Z" fill="white"/>
</svg>
