<svg width="36" height="42" viewBox="0 0 36 42" fill="none" xmlns="http://www.w3.org/2000/svg">
<path d="M23.8834 19.95C23.8834 21.231 22.9577 22.281 21.7851 22.281C20.6331 22.281 19.6869 21.231 19.6869 19.95C19.6869 18.669 20.6126 17.619 21.7851 17.619C22.9577 17.619 23.8834 18.669 23.8834 19.95ZM14.2766 17.619C13.104 17.619 12.1783 18.669 12.1783 19.95C12.1783 21.231 13.1246 22.281 14.2766 22.281C15.4491 22.281 16.3749 21.231 16.3749 19.95C16.3954 18.669 15.4491 17.619 14.2766 17.619ZM36 4.326V42C30.8174 37.3247 32.4749 38.8723 26.4549 33.159L27.5451 37.044H4.21714C1.89257 37.044 0 35.112 0 32.718V4.326C0 1.932 1.89257 0 4.21714 0H31.7829C34.1074 0 36 1.932 36 4.326ZM30.1371 24.234C30.1371 17.472 27.1749 11.991 27.1749 11.991C24.2126 9.723 21.3943 9.786 21.3943 9.786L21.1063 10.122C24.6034 11.214 26.2286 12.789 26.2286 12.789C21.342 10.055 15.6018 10.0545 10.8617 12.18C10.1006 12.537 9.648 12.789 9.648 12.789C9.648 12.789 11.3554 11.13 15.0583 10.038L14.8526 9.786C14.8526 9.786 12.0343 9.723 9.072 11.991C9.072 11.991 6.10971 17.472 6.10971 24.234C6.10971 24.234 7.83771 27.279 12.384 27.426C12.384 27.426 13.1451 26.481 13.7623 25.683C11.1497 24.885 10.1623 23.205 10.1623 23.205C10.4649 23.4212 10.9639 23.7015 11.0057 23.73C14.4779 25.715 19.4101 26.3653 23.8423 24.465C24.5623 24.192 25.3646 23.793 26.208 23.226C26.208 23.226 25.1794 24.948 22.4846 25.725C23.1017 26.523 23.8423 27.426 23.8423 27.426C28.3886 27.279 30.1371 24.234 30.1371 24.234Z" fill="#5F61A3"/>
</svg>
