<svg width="150" height="29" viewBox="0 0 150 29" fill="none" xmlns="http://www.w3.org/2000/svg">
<path d="M3.3675 3.01505V10.0766H0V13.9644H3.3675V28.6033H8.16123V13.9644H12.0834V10.0766H8.16123V3.01505H3.3675Z" fill="white"/>
<path d="M19.7528 22.0575C19.7528 16.8208 21.2979 14.2025 24.388 14.2025C25.4973 14.2025 26.4482 14.3611 27.2009 14.7182L28.0329 10.3543C27.2009 9.91792 26.1708 9.67989 24.9823 9.67989C22.7241 9.67989 20.664 11.2668 19.7528 14.4405V10.0766H14.9194V28.6033H19.7528V22.0575Z" fill="white"/>
<path d="M48.8863 28.6033V10.0766H44.0529V12.3776C42.8248 10.513 40.3685 9.67989 38.3084 9.67989C35.7332 9.67989 33.5146 10.5923 31.6526 12.3776C29.7906 14.1628 28.8794 16.4637 28.8794 19.3201C28.8794 22.1765 29.8302 24.5171 31.6922 26.3023C33.5543 28.0875 35.7728 28.9603 38.3084 28.9603C40.3685 28.9603 42.9436 27.9685 44.0529 26.223V28.6033H48.8863ZM44.0529 19.3201C44.251 23.922 38.3084 25.8659 35.3767 22.9302C34.3862 21.9781 33.8712 20.788 33.8712 19.3201C33.8712 17.8523 34.3862 16.6621 35.3767 15.7497C36.4067 14.7975 37.5953 14.3215 38.9819 14.3215C40.3289 14.3215 41.5174 14.7579 42.5078 15.6703C43.5379 16.5828 44.0529 17.7729 44.0529 19.3201Z" fill="white"/>
<path d="M53.5714 10.0766V28.6033H58.3651V10.0766H53.5714ZM55.988 5.83174C57.6916 5.83174 59.0386 4.52257 59.0386 2.89603C59.0386 1.26949 57.6916 0 55.988 0C54.2845 0 52.8582 1.26949 52.8582 2.89603C52.8582 4.52257 54.2449 5.83174 55.988 5.83174Z" fill="white"/>
<path d="M64.5767 3.01505V10.0766H61.2092V13.9644H64.5767V28.6033H69.3704V13.9644H73.2926V10.0766H69.3704V3.01505H64.5767Z" fill="white"/>
<path d="M94.7545 28.6033V10.0766H89.9211V12.3776C88.693 10.513 86.2367 9.67989 84.1766 9.67989C81.6014 9.67989 79.3829 10.5923 77.5208 12.3776C75.6588 14.1628 74.7476 16.4637 74.7476 19.3201C74.7476 22.1765 75.6984 24.5171 77.5604 26.3023C79.4225 28.0875 81.6411 28.9603 84.1766 28.9603C86.2367 28.9603 88.8118 27.9685 89.9211 26.223V28.6033H94.7545ZM89.9211 19.3201C90.1192 23.922 84.1766 25.8659 81.2449 22.9302C80.2544 21.9781 79.7394 20.788 79.7394 19.3201C79.7394 17.8523 80.2544 16.6621 81.2449 15.7497C82.2749 14.7975 83.4635 14.3215 84.8501 14.3215C86.1971 14.3215 87.3856 14.7579 88.3761 15.6703C89.4061 16.5828 89.9211 17.7729 89.9211 19.3201Z" fill="white"/>
<path d="M109.265 24.3584C106.571 24.3584 104.352 22.2955 104.352 19.2804C104.352 17.7729 104.828 16.5828 105.818 15.6703C106.808 14.7579 107.957 14.2818 109.265 14.2818C111.998 14.2818 114.138 16.3051 114.138 19.2804C114.138 22.2955 111.998 24.3584 109.265 24.3584ZM104.273 26.104C105.224 27.8892 107.561 29 110.057 29C112.553 29 114.692 28.1272 116.475 26.342C118.258 24.5568 119.13 22.2161 119.13 19.3598C119.13 16.4637 118.258 14.1628 116.475 12.3776C114.692 10.5923 112.553 9.67989 110.057 9.67989C107.522 9.67989 105.224 10.751 104.273 12.5363V0H99.4396V28.6033H104.273V26.104Z" fill="white"/>
<path d="M127.506 28.6033V0H122.673V28.6033H127.506Z" fill="white"/>
<path d="M150 19.2804C150 16.4241 149.089 14.1231 147.306 12.3379C145.523 10.5527 143.305 9.67989 140.611 9.67989C137.917 9.67989 135.658 10.5527 133.796 12.3379C131.934 14.1231 131.023 16.4241 131.023 19.2804C131.023 22.1368 131.934 24.4774 133.796 26.3023C135.658 28.0875 137.917 29 140.611 29C144.295 29 147.663 27.5321 149.247 24.5171L145.563 22.5335C144.731 24.0807 142.869 24.9138 140.928 24.9138C138.194 24.9138 136.134 23.3666 135.817 20.9466H149.921C149.96 20.3516 150 19.7962 150 19.2804ZM135.777 17.6539C136.134 15.2339 138.075 13.7264 140.65 13.7264C143.067 13.7264 144.929 15.1546 145.286 17.6539H135.777Z" fill="white"/>
</svg>
