<svg width="26" height="26" viewBox="0 0 26 26" fill="none" xmlns="http://www.w3.org/2000/svg">
<circle cx="13.0919" cy="12.8502" r="12.2647" fill="#333575"/>
<path d="M16.6565 14.4856C16.7219 13.9459 16.7709 13.4063 16.7709 12.8503C16.7709 12.2943 16.7219 11.7547 16.6565 11.215H19.4201C19.5509 11.7383 19.6327 12.2861 19.6327 12.8503C19.6327 13.4145 19.5509 13.9623 19.4201 14.4856H16.6565ZM15.2092 19.0317C15.6998 18.1241 16.0759 17.1429 16.3376 16.1209H18.7496C17.9575 17.4849 16.7007 18.5182 15.2092 19.0317V19.0317ZM15.0048 14.4856H11.1782C11.0965 13.9459 11.0474 13.4063 11.0474 12.8503C11.0474 12.2943 11.0965 11.7465 11.1782 11.215H15.0048C15.0784 11.7465 15.1356 12.2943 15.1356 12.8503C15.1356 13.4063 15.0784 13.9459 15.0048 14.4856ZM13.0915 19.3588C12.4129 18.3776 11.865 17.2901 11.5298 16.1209H14.6532C14.318 17.2901 13.7702 18.3776 13.0915 19.3588ZM9.82092 9.57971H7.43339C8.2174 8.21196 9.47325 7.17704 10.9656 6.66889C10.475 7.57648 10.1071 8.55765 9.82092 9.57971ZM7.43339 16.1209H9.82092C10.1071 17.1429 10.475 18.1241 10.9656 19.0317C9.47638 18.518 8.2223 17.4845 7.43339 16.1209V16.1209ZM6.76292 14.4856C6.6321 13.9623 6.55033 13.4145 6.55033 12.8503C6.55033 12.2861 6.6321 11.7383 6.76292 11.215H9.52657C9.46116 11.7547 9.4121 12.2943 9.4121 12.8503C9.4121 13.4063 9.46116 13.9459 9.52657 14.4856H6.76292ZM13.0915 6.33365C13.7702 7.31483 14.318 8.41048 14.6532 9.57971H11.5298C11.865 8.41048 12.4129 7.31483 13.0915 6.33365V6.33365ZM18.7496 9.57971H16.3376C16.0817 8.56702 15.7027 7.58947 15.2092 6.66889C16.7137 7.184 17.9647 8.22242 18.7496 9.57971ZM13.0915 4.67383C8.56992 4.67383 4.91504 8.35324 4.91504 12.8503C4.91504 15.0188 5.77649 17.0986 7.30987 18.6319C8.06913 19.3912 8.97049 19.9935 9.96251 20.4044C10.9545 20.8153 12.0178 21.0268 13.0915 21.0268C15.26 21.0268 17.3398 20.1653 18.8731 18.6319C20.4065 17.0986 21.268 15.0188 21.268 12.8503C21.268 11.7765 21.0565 10.7133 20.6456 9.7213C20.2347 8.72928 19.6324 7.82792 18.8731 7.06866C18.1139 6.30941 17.2125 5.70713 16.2205 5.29622C15.2285 4.88532 14.1653 4.67383 13.0915 4.67383V4.67383Z" fill="white"/>
</svg>
